Coordinates
version=1
nRows=6
nColumns=36
inDegrees=yes

Units are S.I. units (second, meters, Newtons, ...)
If the header above contains a line with 'inDegrees', this indicates whether rotational values are in degrees (yes) or radians (no).

endheader
time	pelvis_tilt	pelvis_list	pelvis_rotation	pelvis_tx	pelvis_ty	pelvis_tz	hip_flexion_r	hip_adduction_r	hip_rotation_r	knee_angle_r	knee_angle_r_beta	ankle_angle_r	subtalar_angle_r	mtp_angle_r	hip_flexion_l	hip_adduction_l	hip_rotation_l	knee_angle_l	knee_angle_l_beta	ankle_angle_l	subtalar_angle_l	mtp_angle_l	lumbar_extension	lumbar_bending	lumbar_rotation	arm_flex_r	arm_add_r	arm_rot_r	elbow_flex_r	pro_sup_r	arm_flex_l	arm_add_l	arm_rot_l	elbow_flex_l	pro_sup_l
      3.51666670	     25.73695741	     -0.53180184	      4.77107158	      0.04545298	      0.65211909	     -0.11289205	     43.77884738	     -4.99420860	      2.04244414	     81.33611872	      1.41958307	     11.54162880	    -19.76407902	     -7.49999987	     46.46045275	     -1.67024906	      6.92571519	     82.54023750	      1.44059891	     11.98185489	     -8.03551588	     -7.49999987	    -37.86377989	      2.02791137	     -2.76665316	     13.97521404	    -12.47152527	     18.15054650	     30.38768206	     84.48386696	      8.11717943	     -9.29625822	      6.57145025	     29.36624886	     63.63720248
      3.53333330	     25.56681201	     -0.51149035	      4.63245442	      0.04495945	      0.65143208	     -0.11183707	     44.05041963	     -4.96769204	      2.15985760	     81.44971063	      1.42156563	     11.62932370	    -19.51433053	     -7.49999987	     46.64310979	     -1.74967731	      6.80849249	     82.68668268	      1.44315486	     12.17986967	     -7.85467462	     -7.49999987	    -37.57376982	      1.97363831	     -2.70717220	     13.95553778	    -12.46903077	     18.54183373	     29.86645846	     84.26782872	      8.22740132	     -9.27313654	      6.71285266	     29.06694788	     63.61199209
      3.55000000	     25.56733645	     -0.49248752	      4.49735759	      0.04581530	      0.65140507	     -0.11238174	     44.11451482	     -4.97274952	      2.24464095	     81.56268039	      1.42353732	     11.73271047	    -19.38667172	     -7.49999987	     46.57079376	     -1.78435154	      6.70441051	     82.71464714	      1.44364293	     12.31954067	     -7.81407196	     -7.49999987	    -37.44086206	      1.97890395	     -2.69088382	     13.92051068	    -12.55638488	     18.84883451	     29.69232091	     83.22909708	      8.23573221	     -9.22030478	      6.77246113	     28.98728032	     63.39450055
      3.56666670	     25.33646957	     -0.45423994	      4.41987882	      0.04509153	      0.65164205	     -0.11160328	     44.39605858	     -4.95829214	      2.23414263	     81.60175752	      1.42421934	     11.86826236	    -19.41056251	     -7.49999987	     46.76517113	     -1.79416733	      6.54446158	     82.63188362	      1.44219844	     12.33039344	     -7.92551703	     -7.49999987	    -37.23173963	      1.92461495	     -2.67784913	     13.54852866	    -12.68181254	     18.84164584	     30.35855639	     82.53778785	      8.04171188	     -9.28271133	      6.75499591	     29.72617078	     63.26253493
      3.58333330	     25.47021418	     -0.41863448	      4.36762246	      0.04397215	      0.65282680	     -0.11088523	     44.16648920	     -4.87809113	      2.24444741	     81.38773300	      1.42048391	     11.92767289	    -19.30947411	     -7.49999987	     46.49549218	     -1.87826081	      6.50893928	     82.34683800	      1.43722345	     12.20324505	     -7.94210158	     -7.49999987	    -37.39939848	      1.93610026	     -2.83557859	     14.00797325	    -12.59238447	     19.92357364	     29.25509696	     83.26158710	      8.47489821	     -9.34181112	      7.37152464	     28.82153874	     63.47918086
      3.60000000	     25.54474974	     -0.42363505	      4.31668996	      0.04394961	      0.65217594	     -0.11080745	     44.12621718	     -4.82466372	      2.26564297	     81.29898740	      1.41893501	     11.64810226	    -19.53585153	     -7.49999987	     46.47239459	     -1.95032121	      6.49328475	     82.32602642	      1.43686022	     12.11072635	     -8.09504591	     -7.49999987	    -37.65935004	      1.90692943	     -2.83960505	     14.03603387	    -12.60332561	     19.94138057	     29.59943076	     82.65093315	      8.64062457	     -9.40185320	      7.37111031	     29.21328322	     63.35698051
